<svg xmlns="http://www.w3.org/2000/svg" version="1.1" xmlns:xlink="http://www.w3.org/1999/xlink" xmlns:svgjs="http://svgjs.com/svgjs" width="1440" height="560" preserveAspectRatio="none" viewBox="0 0 1440 560"><g mask="url(&quot;#SvgjsMask1054&quot;)" fill="none"><rect width="1440" height="560" x="0" y="0" fill="url(#SvgjsLinearGradient1055)"></rect><path d="M0 0L51.14 0L0 14.69z" fill="rgba(255, 255, 255, .1)"></path><path d="M0 14.69L51.14 0L359.2 0L0 299.83z" fill="rgba(255, 255, 255, .075)"></path><path d="M0 299.83L359.2 0L931.9200000000001 0L0 321.78z" fill="rgba(255, 255, 255, .05)"></path><path d="M0 321.78L931.9200000000001 0L1060.96 0L0 441.46999999999997z" fill="rgba(255, 255, 255, .025)"></path><path d="M1440 560L976.26 560L1440 500.81z" fill="rgba(0, 0, 0, .1)"></path><path d="M1440 500.81L976.26 560L933.76 560L1440 250.19z" fill="rgba(0, 0, 0, .075)"></path><path d="M1440 250.19L933.76 560L746.09 560L1440 185.04z" fill="rgba(0, 0, 0, .05)"></path><path d="M1440 185.03999999999996L746.09 560L712.36 560L1440 126.85999999999996z" fill="rgba(0, 0, 0, .025)"></path></g><defs><mask id="SvgjsMask1054"><rect width="1440" height="560" fill="#ffffff"></rect></mask><linearGradient x1="15.28%" y1="-39.29%" x2="84.72%" y2="139.29%" gradientUnits="userSpaceOnUse" id="SvgjsLinearGradient1055"><stop stop-color="#0e2a47" offset="0"></stop><stop stop-color="#00459e" offset="1"></stop></linearGradient></defs></svg>