<svg xmlns="http://www.w3.org/2000/svg" version="1.1" xmlns:xlink="http://www.w3.org/1999/xlink" xmlns:svgjs="http://svgjs.com/svgjs" width="1440" height="560" preserveAspectRatio="none" viewBox="0 0 1440 560"><g mask="url(&quot;#SvgjsMask3015&quot;)" fill="none"><rect width="1440" height="560" x="0" y="0" fill="url(#SvgjsLinearGradient3016)"></rect><path d="M849.01-12.23C681.66 38.69 629.61 513.58 390.63 516.4 151.66 519.22 63.43 267.42-67.74 258.8" stroke="rgba(51,121,194,0.58)" stroke-width="2"></path><path d="M490.52-54.25C380.58-43.6 333.81 174.59 121.83 189.22-90.15 203.85-144.48 363.76-246.86 368.42" stroke="rgba(51,121,194,0.58)" stroke-width="2"></path><path d="M1143.04-107.66C1015.91-82.19 1078.01 230.63 761.99 244.14 445.98 257.65 196.27 433.11-0.1 434.54" stroke="rgba(51,121,194,0.58)" stroke-width="2"></path><path d="M1010.31-105.81C908.24-96.05 946.79 110.3 667.45 119.29 388.12 128.28 161.22 329.66-18.26 332.09" stroke="rgba(51,121,194,0.58)" stroke-width="2"></path><path d="M1063.34-76.27C884.25-71.44 749.39 182.76 397.65 189.01 45.91 195.26-94.95 377.55-268.04 379.41" stroke="rgba(51,121,194,0.58)" stroke-width="2"></path></g><defs><mask id="SvgjsMask3015"><rect width="1440" height="560" fill="#ffffff"></rect></mask><linearGradient x1="15.28%" y1="-39.29%" x2="84.72%" y2="139.29%" gradientUnits="userSpaceOnUse" id="SvgjsLinearGradient3016"><stop stop-color="rgba(213, 222, 203, 1)" offset="0"></stop><stop stop-color="rgba(62, 166, 69, 1)" offset="0.91"></stop></linearGradient></defs></svg>